<?xml version="1.0" encoding="UTF-8"?>
<svg id="Ebene_1" data-name="Ebene 1" xmlns="http://www.w3.org/2000/svg" viewBox="0 0 314 338">
  <defs>
    <style>
      .cls-1 {
        fill: #ff3723;
        stroke-width: 0px;
      }
    </style>
  </defs>
  <path class="cls-1" d="M154.5,276.72c0,5.36.03,10.72-.01,16.07-.03,3.98-1.59,5.46-5.51,5.33-9.54-.32-12.32-1.12-13.63-11.96-.38-3.17-.81-6.35-1.51-9.46-.2-.92-1.27-2.12-2.15-2.33-11.43-2.76-22.13-7.17-32.11-13.4-.68-.43-2.17-.3-2.88.18-3.9,2.62-7.66,5.44-11.5,8.15-3.91,2.76-7.49,2.69-10.98-.6-4.85-4.57-9.63-9.23-14.16-14.11-3.82-4.12-3.8-7.07-.6-11.61,2.49-3.54,4.96-7.09,7.58-10.52,1.13-1.49,1.25-2.62.21-4.26-6.06-9.51-10.39-19.77-12.77-30.81-.39-1.83-1.2-2.63-3.1-2.88-4.56-.62-9.09-1.45-13.61-2.28-4.35-.8-6.74-3.23-6.87-7.65-.21-7.12-.21-14.26,0-21.38.13-4.39,2.52-6.75,6.95-7.54,4.62-.83,9.24-1.66,13.89-2.33,1.54-.22,2.28-.82,2.61-2.34,2.45-11.32,6.92-21.8,12.99-31.65.51-.83.42-2.57-.13-3.41-2.51-3.85-5.32-7.51-7.97-11.28-2.84-4.05-2.96-7.16.34-10.72,4.91-5.3,10.07-10.37,15.34-15.31,2.84-2.67,6.54-2.59,9.87-.29,3.94,2.73,7.85,5.51,11.68,8.39,1.25.94,2.13.99,3.46.14,9.74-6.25,20.29-10.61,31.57-13.14,1.76-.39,2.26-1.28,2.49-2.81.69-4.65,1.38-9.3,2.23-13.92.74-4.07,3.13-6.3,7.17-6.81,2.14-.27,4.31-.39,6.47-.4,2.82-.01,4.57,1.49,4.59,4.24.08,11.47.09,22.94-.01,34.4-.03,2.84-1.72,4.07-5.22,4.29-10.64.67-20.81,3.23-30.29,8.06-24.45,12.46-39.73,32.14-44.48,59.21-7.66,43.66,20.32,84.54,63.66,93.73,3.39.72,6.87,1.09,10.32,1.41,5.12.48,6.08,1.43,6.09,6.68,0,4.98,0,9.96,0,14.95Z"/>
  <path class="cls-1" d="M154.5,174.05c0,19.37,0,38.74,0,58.11,0,5.1-1.4,6.32-6.49,5.73-32.41-3.75-55.98-28.8-57.74-61.37-1.69-31.32,21.17-60.03,52.37-65.74,2.12-.39,4.27-.67,6.42-.9,3.82-.42,5.44,1.12,5.44,5.21.02,19.65,0,39.3,0,58.95Z"/>
  <path class="cls-1" d="M163.15,156.55v-8.34c1.26,0,2.35,0,3.45,0,19.54,0,39.08,0,58.62,0,5.21,0,6.39-1.21,6.39-6.52,0-5.92-.04-11.84.03-17.76.02-1.49-.4-2.29-1.79-3.04-5.31-2.85-7.89-8.72-6.51-14.28,1.43-5.77,6.65-9.86,12.56-9.85,5.82.02,10.95,3.98,12.45,9.62,1.51,5.67-1.03,11.57-6.49,14.52-1.44.78-1.71,1.67-1.7,3.1.05,6.48.06,12.97,0,19.45-.06,7.62-5.24,13.22-12.77,13.26-20.95.13-41.9.05-62.84.04-.36,0-.73-.11-1.4-.22Z"/>
  <path class="cls-1" d="M163.15,199.67v-8.43c1.15-.05,2.16-.14,3.16-.14,19.82,0,39.64-.02,59.46,0,9.32,0,14.39,5.15,14.4,14.52,0,6.11.04,12.21-.03,18.32-.02,1.48.38,2.3,1.77,3.06,5.42,2.93,7.95,8.89,6.41,14.56-1.54,5.64-6.69,9.58-12.5,9.57-5.8-.02-10.9-3.97-12.44-9.65-1.52-5.6,1.08-11.6,6.52-14.51,1.43-.77,1.73-1.64,1.72-3.08-.06-6.2,0-12.4-.03-18.6-.02-4.12-1.48-5.6-5.61-5.6-19.73-.02-39.45,0-59.18-.01-1.11,0-2.22,0-3.67,0Z"/>
  <path class="cls-1" d="M210.82,169.58c14.84,0,29.68-.03,44.53.03,1.77,0,2.82-.41,3.78-2.06,3.07-5.31,8.87-7.6,14.46-6.02,5.5,1.56,9.38,6.64,9.41,12.32.03,5.69-3.79,10.81-9.27,12.43-5.54,1.64-11.47-.61-14.52-5.86-1.03-1.78-2.17-2.16-4.02-2.15-29.5.05-58.99.03-88.49.03q-3.7,0-3.71-3.59,0-5.12,5-5.12c14.28,0,28.56,0,42.84,0Z"/>
  <path class="cls-1" d="M163.14,122.57v-8.6c3.48,0,6.82,0,10.16,0,3.29,0,6.57.03,9.86,0,4.16-.05,5.61-1.51,5.62-5.62.02-7.51-.05-15.03.05-22.54.03-1.82-.5-2.76-2.15-3.68-5.86-3.27-8.02-10.19-5.33-16.29,2.61-5.92,9.34-9,15.44-7.06,6.43,2.04,10.24,8.46,8.81,15.05-.8,3.67-2.82,6.61-6.19,8.3-1.73.87-2.12,1.96-2.1,3.74.08,7.61.06,15.21.03,22.82-.04,8.53-5.4,13.85-13.94,13.88-6.66.03-13.32,0-20.26,0Z"/>
  <path class="cls-1" d="M188.78,264.51c0-8.64.04-17.27-.02-25.91-.02-3.09-1.74-4.59-5.14-4.62-5.73-.06-11.46-.02-17.19-.02-1.02,0-2.03,0-3.24,0v-8.41c7.86,0,15.66-.5,23.36.15,6.6.56,10.7,6.02,10.77,12.74.08,7.89.07,15.78,0,23.67-.02,1.67.35,2.67,1.94,3.54,5.4,2.97,7.8,8.88,6.2,14.64-1.55,5.55-6.79,9.44-12.62,9.37-5.82-.08-10.76-4.03-12.26-9.81-1.43-5.54,1.17-11.37,6.41-14.34.57-.32,1.14-.63,1.81-1Z"/>
  <path class="cls-1" d="M163.17,139.45v-8.1c.69-.09,1.4-.25,2.1-.25,13.14-.02,26.29-.02,39.43.01,1.01,0,2.38-.04,2.95.55,1.07,1.11,2.38,2.71,2.29,4.02-.09,1.32-1.66,2.63-2.8,3.73-.42.41-1.44.28-2.18.28-13.24.01-26.48.01-39.72,0-.63,0-1.27-.14-2.07-.24Z"/>
  <path class="cls-1" d="M163.01,216.79c0-2.6-.12-4.85.08-7.06.05-.55,1.14-1.44,1.75-1.45,13.7-.08,27.41-.08,41.11-.02,2.46.01,4.1,1.8,4.19,4.06.09,2.26-1.47,4.05-3.89,4.39-.74.1-1.5.06-2.25.07-12.67,0-25.34,0-38.01,0-.84,0-1.68,0-2.99,0Z"/>
</svg>