<?xml version="1.0" encoding="UTF-8"?>
<svg id="Ebene_1" data-name="Ebene 1" xmlns="http://www.w3.org/2000/svg" viewBox="0 0 314 338">
  <defs>
    <style>
      .cls-1 {
        fill: #ff3723;
        stroke-width: 0px;
      }
    </style>
  </defs>
  <path class="cls-1" d="M75.54,129.65c0-11.32,0-22.63,0-33.95,0-4.61,1.47-6.09,6.05-6.09,22.63-.01,45.27-.01,67.9,0,4.6,0,6.09,1.48,6.09,6.04.01,22.63.01,45.27,0,67.9,0,4.6-1.48,6.09-6.05,6.09-22.63.01-45.27.01-67.9,0-4.6,0-6.09-1.48-6.09-6.05-.02-11.32,0-22.63,0-33.95ZM115.66,134.03c2.36-.06,4.51-2.25,4.28-4.58-.25-2.53-1.76-4.04-4.32-4.2-2.34-.15-4.47,2.04-4.46,4.4.01,2.36,2.15,4.44,4.5,4.39Z"/>
  <path class="cls-1" d="M173.35,129.55c.03-22.03,17.97-39.94,40.01-39.95,22.18,0,40.12,18.03,40.03,40.25-.09,21.99-18.12,39.86-40.17,39.8-22-.06-39.9-18.05-39.87-40.09ZM217.77,129.57c-.04-2.36-2.2-4.52-4.54-4.32-2.54.22-4.05,1.73-4.24,4.28-.18,2.34,2,4.49,4.36,4.5,2.35.01,4.46-2.12,4.42-4.46Z"/>
  <path class="cls-1" d="M213.2,267.46c-6.14,0-12.28-.06-18.42.03-2.94.04-4.7-1.19-5.78-3.93-4.92-12.5-9.89-24.98-14.95-37.42-1.14-2.79-.56-4.82,1.63-6.75,11.26-9.95,22.46-19.97,33.72-29.92,3.23-2.86,4.73-2.86,7.98.01,11.18,9.88,22.29,19.84,33.49,29.7,2.39,2.11,2.95,4.25,1.71,7.29-5.05,12.33-9.96,24.72-14.84,37.12-1.08,2.74-2.87,3.94-5.8,3.89-6.24-.09-12.49-.03-18.73-.03ZM217.77,231.89c0-2.35-2.13-4.55-4.47-4.39-2.55.17-4.07,1.67-4.31,4.21-.22,2.33,1.93,4.52,4.29,4.57,2.35.05,4.49-2.04,4.49-4.39Z"/>
  <path class="cls-1" d="M119.99,267.46c-12.69,0-25.38,0-38.08,0-6.08,0-7.84-2.95-4.85-8.29,12.66-22.6,25.34-45.18,38.06-67.74,3.05-5.42,6.71-5.41,9.77.02,12.71,22.57,25.4,45.15,38.06,67.75,2.98,5.32,1.2,8.27-4.89,8.28-12.69.01-25.38,0-38.08,0ZM120.14,236.29c2.36-.08,4.49-2.3,4.24-4.62-.28-2.52-1.79-4.03-4.36-4.17-2.35-.13-4.46,2.08-4.42,4.44.03,2.36,2.19,4.43,4.54,4.35Z"/>
  <path class="cls-1" d="M66.66,62.93h3.82c24.55,0,49.1,0,73.66,0,.95,0,1.92-.09,2.85.06,2.52.38,4.11,1.88,4.07,4.46-.04,2.57-1.65,4.03-4.19,4.35-.94.12-1.9.05-2.85.05-24.55,0-49.1,0-73.66,0h-3.36q-1.14,8.32-9.22,9.14c0,1.09,0,2.22,0,3.34,0,24.66,0,49.32,0,73.97,0,1.06.11,2.15-.12,3.16-.53,2.32-2.16,4.1-4.45,3.55-1.61-.39-3.03-2.16-4.16-3.61-.52-.67-.17-2.05-.17-3.1,0-24.55,0-49.1,0-73.66v-3.91c-1.38,0-2.6.04-3.82,0-3.36-.13-5.02-1.76-5.06-5.17-.06-5.5-.07-11.01,0-16.51.04-3.23,1.71-4.94,4.89-4.98,5.61-.08,11.22-.08,16.83,0,3.21.05,4.8,1.73,4.94,4.95.05,1.16,0,2.32,0,3.91ZM57.61,63.12h-8.53v8.48h8.53v-8.48Z"/>
  <path class="cls-1" d="M261.93,285.23q1.17-8.35,9.23-9.13v-3.66c0-24.55,0-49.11,0-73.66,0-1.06-.11-2.15.12-3.16.52-2.33,2.15-4.11,4.44-3.56,1.61.38,3.04,2.15,4.17,3.59.52.67.17,2.05.17,3.1,0,24.55,0,49.11,0,73.66,0,1.15,0,2.31,0,3.94,1.48,0,2.8-.06,4.12.01,3,.17,4.7,1.79,4.74,4.82.09,5.71.1,11.43,0,17.14-.05,2.98-1.81,4.64-4.87,4.68-5.5.08-11.01.07-16.51.01-3.58-.04-5.17-1.68-5.27-5.27-.03-1.05,0-2.11,0-3.61-1.35,0-2.58,0-3.81,0-24.55,0-49.11,0-73.66,0-1.06,0-2.15.11-3.17-.1-2.34-.48-3.8-1.97-3.78-4.41.03-2.44,1.53-3.89,3.87-4.32,1.03-.19,2.11-.08,3.17-.08,24.55,0,49.11,0,73.66,0,1.14,0,2.28,0,3.37,0ZM271.45,285.32v8.59h8.36v-8.59h-8.36Z"/>
  <path class="cls-1" d="M164.62,71.81c-2.34.09-4.49-1.91-4.58-4.27-.09-2.35,1.91-4.49,4.27-4.58,2.34-.09,4.49,1.91,4.58,4.27.09,2.34-1.92,4.49-4.27,4.58Z"/>
  <path class="cls-1" d="M53.33,182.96c-2.35.01-4.43-2.05-4.44-4.41-.01-2.35,2.05-4.43,4.4-4.45,2.35-.01,4.43,2.05,4.45,4.4.01,2.34-2.06,4.44-4.4,4.45Z"/>
  <path class="cls-1" d="M275.72,174.11c2.36.06,4.38,2.18,4.32,4.53-.06,2.36-2.19,4.38-4.53,4.32-2.36-.06-4.38-2.19-4.32-4.54.06-2.36,2.18-4.38,4.53-4.32Z"/>
  <path class="cls-1" d="M168.89,289.57c.06,2.35-1.96,4.47-4.32,4.53-2.35.06-4.47-1.96-4.53-4.32-.06-2.35,1.96-4.47,4.32-4.53,2.35-.06,4.47,1.96,4.53,4.32Z"/>
</svg>