<?xml version="1.0" encoding="UTF-8"?>
<!DOCTYPE svg PUBLIC "-//W3C//DTD SVG 1.1//EN" "http://www.w3.org/Graphics/SVG/1.1/DTD/svg11.dtd">
<svg xmlns="http://www.w3.org/2000/svg" version="1.1" width="358px" height="400px" style="shape-rendering:geometricPrecision; text-rendering:geometricPrecision; image-rendering:optimizeQuality; fill-rule:evenodd; clip-rule:evenodd" xmlns:xlink="http://www.w3.org/1999/xlink">
<g><path style="opacity:0.945" fill="#090706" d="M 144.5,23.5 C 145.209,24.404 146.209,24.7373 147.5,24.5C 147.611,25.1174 147.944,25.6174 148.5,26C 154.167,26.6667 159.833,26.6667 165.5,26C 166.416,25.7216 167.082,25.2216 167.5,24.5C 175.481,23.5567 183.481,23.39 191.5,24C 206.497,26.9999 214.33,36.1666 215,51.5C 215.333,49.5 215.667,47.5 216,45.5C 216.236,47.8452 217.07,49.8452 218.5,51.5C 217.508,51.3284 216.842,51.6618 216.5,52.5C 215.833,52.5 215.5,52.8333 215.5,53.5C 214.833,53.5 214.5,53.8333 214.5,54.5C 214.001,57.3892 212.501,58.0558 210,56.5C 210.553,36.8857 201.053,27.5524 181.5,28.5C 169.54,30.0681 157.54,30.5681 145.5,30C 140.214,28.3587 135.547,25.692 131.5,22C 130.207,21.51 128.873,21.3433 127.5,21.5C 127.666,25.5138 127.499,29.5138 127,33.5C 124.333,34.1667 121.667,34.8333 119,35.5C 118.825,38.1572 118.992,40.8239 119.5,43.5C 115,43.1638 113.167,45.1638 114,49.5C 117.645,52.7199 117.145,54.7199 112.5,55.5C 113.637,60.1063 116.637,62.9396 121.5,64C 126.167,64.6667 130.833,64.6667 135.5,64C 144.887,61.6853 154.387,60.1853 164,59.5C 167.167,59.6667 170.333,59.8333 173.5,60C 175.384,60.2163 177.051,60.883 178.5,62C 172.373,61.2818 166.373,61.4485 160.5,62.5C 151.362,64.3677 142.362,66.701 133.5,69.5C 136.96,79.714 135.794,89.3807 130,98.5C 129.728,101.254 129.228,103.921 128.5,106.5C 126.833,106.5 125.167,106.5 123.5,106.5C 123.335,103.482 123.502,100.482 124,97.5C 127.521,92.4585 130.521,87.1251 133,81.5C 133.607,77.4631 133.44,73.4631 132.5,69.5C 127.797,69.5628 123.13,69.2295 118.5,68.5C 116.58,78.4056 116.08,88.4056 117,98.5C 117.29,100.952 117.956,103.285 119,105.5C 121.744,106.74 123.577,108.74 124.5,111.5C 116.811,106.219 111.811,108.052 109.5,117C 109.542,118.967 110.042,120.801 111,122.5C 113.333,124.167 115.667,125.833 118,127.5C 118.333,130.167 118.667,132.833 119,135.5C 121.027,135.986 123.193,135.986 125.5,135.5C 125.941,127.407 122.608,121.24 115.5,117C 119.997,116.271 124.33,116.771 128.5,118.5C 130.533,127.05 135.2,133.883 142.5,139C 146.667,141.833 150.833,144.667 155,147.5C 160.585,135.443 170.085,128.443 183.5,126.5C 181.525,125.251 181.191,123.751 182.5,122C 184.631,122.398 186.631,123.398 188.5,125C 193.667,126.5 195.5,124.667 194,119.5C 193.363,117.697 192.197,116.364 190.5,115.5C 195.14,114.457 197.474,116.457 197.5,121.5C 197.635,123.808 196.969,125.808 195.5,127.5C 202.725,130.556 208.225,135.556 212,142.5C 214.796,138.102 215.962,133.269 215.5,128C 213.874,112.869 212.874,97.7022 212.5,82.5C 212.172,77.1254 212.505,71.7921 213.5,66.5C 217.174,64.1332 220.174,61.1332 222.5,57.5C 222.833,57.5 223.167,57.5 223.5,57.5C 224.6,58.6049 225.267,59.9382 225.5,61.5C 224.662,61.8417 224.328,62.5084 224.5,63.5C 221.248,65.8657 217.581,67.3657 213.5,68C 214.109,69.9483 214.776,71.7816 215.5,73.5C 216.216,81.0713 217.55,88.4046 219.5,95.5C 219.198,98.0593 219.532,100.393 220.5,102.5C 221.931,114.787 222.598,127.12 222.5,139.5C 221.596,140.209 221.263,141.209 221.5,142.5C 220.662,142.842 220.328,143.508 220.5,144.5C 219.662,144.842 219.328,145.508 219.5,146.5C 218.662,146.842 218.328,147.508 218.5,148.5C 217.662,148.842 217.328,149.508 217.5,150.5C 214.325,152.992 212.659,156.326 212.5,160.5C 211.662,160.842 211.328,161.508 211.5,162.5C 210.662,162.842 210.328,163.508 210.5,164.5C 209.662,164.842 209.328,165.508 209.5,166.5C 207.457,167.579 206.124,169.246 205.5,171.5C 203.246,172.124 201.579,173.457 200.5,175.5C 194.083,176.12 193.916,177.453 200,179.5C 201.128,181.345 201.628,183.345 201.5,185.5C 200.686,187.631 200.186,189.964 200,192.5C 197,196.167 194,199.833 191,203.5C 190.824,206.882 190.324,210.215 189.5,213.5C 187.241,211.455 184.741,209.789 182,208.5C 177.513,210.675 177.346,209.841 181.5,206C 183.464,205.376 185.131,205.876 186.5,207.5C 188.588,201.244 192.088,195.911 197,191.5C 197.667,188.167 197.667,184.833 197,181.5C 195.075,180.12 193.241,178.62 191.5,177C 190.668,176.312 190.002,176.479 189.5,177.5C 190.976,180.415 191.81,183.415 192,186.5C 189.082,194.671 184.415,201.671 178,207.5C 176.726,210.391 175.226,213.058 173.5,215.5C 172.566,214.432 172.232,213.099 172.5,211.5C 175.004,206.482 178.504,202.149 183,198.5C 184.667,195.5 186.333,192.5 188,189.5C 187.998,185.14 187.498,180.807 186.5,176.5C 180.824,176.666 175.157,176.499 169.5,176C 160.369,171.788 151.369,167.288 142.5,162.5C 140.219,164.394 139.052,166.728 139,169.5C 144.147,174.821 149.98,179.155 156.5,182.5C 156.5,183.833 155.833,184.5 154.5,184.5C 144.031,178.874 135.198,171.208 128,161.5C 124.888,164.774 122.388,168.44 120.5,172.5C 119.833,173.5 119.167,174.5 118.5,175.5C 117.722,174.844 117.056,174.011 116.5,173C 119.043,167.787 122.376,163.121 126.5,159C 129.753,157.964 133.086,157.297 136.5,157C 135.956,156.283 135.289,155.783 134.5,155.5C 134.5,154.833 134.167,154.5 133.5,154.5C 132.488,153.128 131.488,151.795 130.5,150.5C 130.5,149.833 130.167,149.5 129.5,149.5C 128.513,147.527 127.513,145.527 126.5,143.5C 125.743,142.227 125.077,142.227 124.5,143.5C 115.419,144.419 111.419,140.419 112.5,131.5C 108.565,128.93 105.565,125.597 103.5,121.5C 102.569,114.699 104.902,109.365 110.5,105.5C 109.556,101.562 108.889,97.5621 108.5,93.5C 109.262,88.1698 109.928,82.8365 110.5,77.5C 112.147,74.2706 113.814,70.9373 115.5,67.5C 111.859,65.6929 109.026,63.0262 107,59.5C 106.105,56.5337 106.605,53.8671 108.5,51.5C 107.087,47.9808 107.421,44.6475 109.5,41.5C 110.167,41.5 110.5,41.1667 110.5,40.5C 112.87,40.0175 113.537,38.8508 112.5,37C 113.622,31.6009 116.955,28.7676 122.5,28.5C 122.253,25.0613 122.586,21.728 123.5,18.5C 124.167,18.5 124.5,18.1667 124.5,17.5C 125.915,16.7106 127.415,16.0439 129,15.5C 133.855,18.8437 139.022,21.5103 144.5,23.5 Z"/></g>
<g><path style="opacity:0.012" fill="#000000" d="M 133.5,15.5 C 134.833,16.1667 134.833,16.1667 133.5,15.5 Z"/></g>
<g><path style="opacity:0.005" fill="#000000" d="M 124.5,17.5 C 123.833,17.5 123.5,17.8333 123.5,18.5C 122.957,18.44 122.624,18.1067 122.5,17.5C 123.257,16.2267 123.923,16.2267 124.5,17.5 Z"/></g>
<g><path style="opacity:0.016" fill="#000000" d="M 120.5,19.5 C 121.8,22.0241 121.8,24.6908 120.5,27.5C 120.324,25.1143 120.324,22.4476 120.5,19.5 Z"/></g>
<g><path style="opacity:0.013" fill="#000000" d="M 192.5,22.5 C 186.158,22.6662 179.825,22.4995 173.5,22C 180.014,21.18 186.347,21.3467 192.5,22.5 Z"/></g>
<g><path style="opacity:0.017" fill="#5a514d" d="M 144.5,23.5 C 153.657,22.3424 162.991,22.1757 172.5,23C 163.173,23.4998 153.839,23.6665 144.5,23.5 Z"/></g>
<g><path style="opacity:0.013" fill="#000000" d="M 192.5,22.5 C 194.099,22.2322 195.432,22.5655 196.5,23.5C 194.901,23.7678 193.568,23.4345 192.5,22.5 Z"/></g>
<g><path style="opacity:0.012" fill="#000000" d="M 196.5,23.5 C 197.239,23.369 197.906,23.5357 198.5,24C 197.563,24.6917 196.897,24.525 196.5,23.5 Z"/></g>
<g><path style="opacity:1" fill="#e7d7ba" d="M 214.5,54.5 C 215.167,54.5 215.5,54.1667 215.5,53.5C 216.167,53.5 216.5,53.1667 216.5,52.5C 217.167,52.5 217.833,52.5 218.5,52.5C 217.748,56.8403 215.414,60.0069 211.5,62C 212.833,62.6667 214.167,62.6667 215.5,62C 217.996,60.3335 220.329,58.5002 222.5,56.5C 222.5,56.8333 222.5,57.1667 222.5,57.5C 220.174,61.1332 217.174,64.1332 213.5,66.5C 212.505,71.7921 212.172,77.1254 212.5,82.5C 211.815,76.4326 211.149,70.2659 210.5,64C 208.256,63.0943 205.923,62.5943 203.5,62.5C 198.048,64.6484 192.382,65.9818 186.5,66.5C 177.947,64.5641 169.281,63.2308 160.5,62.5C 166.373,61.4485 172.373,61.2818 178.5,62C 177.051,60.883 175.384,60.2163 173.5,60C 170.333,59.8333 167.167,59.6667 164,59.5C 154.387,60.1853 144.887,61.6853 135.5,64C 130.833,64.6667 126.167,64.6667 121.5,64C 116.637,62.9396 113.637,60.1063 112.5,55.5C 117.145,54.7199 117.645,52.7199 114,49.5C 113.167,45.1638 115,43.1638 119.5,43.5C 118.992,40.8239 118.825,38.1572 119,35.5C 121.667,34.8333 124.333,34.1667 127,33.5C 127.499,29.5138 127.666,25.5138 127.5,21.5C 128.873,21.3433 130.207,21.51 131.5,22C 135.547,25.692 140.214,28.3587 145.5,30C 157.54,30.5681 169.54,30.0681 181.5,28.5C 201.053,27.5524 210.553,36.8857 210,56.5C 212.501,58.0558 214.001,57.3892 214.5,54.5 Z"/></g>
<g><path style="opacity:1" fill="#bbb09a" d="M 147.5,24.5 C 154.167,24.5 160.833,24.5 167.5,24.5C 167.082,25.2216 166.416,25.7216 165.5,26C 159.833,26.6667 154.167,26.6667 148.5,26C 147.944,25.6174 147.611,25.1174 147.5,24.5 Z"/></g>
<g><path style="opacity:1" fill="#211f1c" d="M 141.5,35.5 C 144.024,34.1997 146.691,34.1997 149.5,35.5C 146.844,36.6145 144.177,36.6145 141.5,35.5 Z"/></g>
<g><path style="opacity:0.009" fill="#000000" d="M 110.5,40.5 C 109.833,40.5 109.5,40.8333 109.5,41.5C 108.957,41.44 108.624,41.1067 108.5,40.5C 109.257,39.2267 109.923,39.2267 110.5,40.5 Z"/></g>
<g><path style="opacity:1" fill="#161412" d="M 195.5,37.5 C 199.457,39.4568 202.457,42.4568 204.5,46.5C 204.167,46.8333 203.833,47.1667 203.5,47.5C 200.347,44.5099 197.68,41.1766 195.5,37.5 Z"/></g>
<g><path style="opacity:1" fill="#110f0d" d="M 134.5,40.5 C 134.56,39.9569 134.893,39.6236 135.5,39.5C 140.42,40.8267 145.42,41.8267 150.5,42.5C 148.979,43.9373 147.145,44.604 145,44.5C 141.04,44.2378 137.54,42.9044 134.5,40.5 Z"/></g>
<g><path style="opacity:1" fill="#100f0d" d="M 127.5,46.5 C 135.391,47.9889 143.391,48.9889 151.5,49.5C 150.91,50.7989 149.91,51.6322 148.5,52C 143.833,52.6667 139.167,52.6667 134.5,52C 131.36,51.0089 129.026,49.1756 127.5,46.5 Z"/></g>
<g><path style="opacity:0.012" fill="#000000" d="M 219.5,49.5 C 219.897,48.475 220.563,48.3083 221.5,49C 220.906,49.4643 220.239,49.631 219.5,49.5 Z"/></g>
<g><path style="opacity:0.843" fill="#090807" d="M 223.5,55.5 C 222.833,55.5 222.5,55.8333 222.5,56.5C 220.329,58.5002 217.996,60.3335 215.5,62C 214.167,62.6667 212.833,62.6667 211.5,62C 215.414,60.0069 217.748,56.8403 218.5,52.5C 218.5,52.1667 218.5,51.8333 218.5,51.5C 219.708,50.7659 221.041,50.4326 222.5,50.5C 222.629,52.2161 222.962,53.8828 223.5,55.5 Z"/></g>
<g><path style="opacity:0.02" fill="#000000" d="M 224.5,52.5 C 223.833,51.1667 223.833,51.1667 224.5,52.5 Z"/></g>
<g><path style="opacity:0.007" fill="#000000" d="M 224.5,52.5 C 225.833,53.5 225.833,54.5 224.5,55.5C 224.5,54.5 224.5,53.5 224.5,52.5 Z"/></g>
<g><path style="opacity:1" fill="#191815" d="M 191.5,49.5 C 197.881,49.8757 201.548,53.5424 202.5,60.5C 201.167,60.5 199.833,60.5 198.5,60.5C 197.928,55.6841 195.595,52.0174 191.5,49.5 Z"/></g>
<g><path style="opacity:1" fill="#201e1a" d="M 180.5,52.5 C 180.56,51.9569 180.893,51.6236 181.5,51.5C 186.05,53.5458 189.883,56.5458 193,60.5C 193.749,61.635 193.583,62.635 192.5,63.5C 189.131,59.1308 185.131,55.4642 180.5,52.5 Z"/></g>
<g><path style="opacity:0.027" fill="#151515" d="M 223.5,55.5 C 223.833,55.5 224.167,55.5 224.5,55.5C 226.031,56.9245 225.698,57.5912 223.5,57.5C 223.5,56.8333 223.5,56.1667 223.5,55.5 Z"/></g>
<g><path style="opacity:0.01" fill="#000000" d="M 226.5,61.5 C 226.369,60.7611 226.536,60.0944 227,59.5C 227.692,60.4368 227.525,61.1034 226.5,61.5 Z"/></g>
<g><path style="opacity:0.01" fill="#000000" d="M 225.5,61.5 C 225.833,61.5 226.167,61.5 226.5,61.5C 226.672,62.4916 226.338,63.1583 225.5,63.5C 225.5,62.8333 225.5,62.1667 225.5,61.5 Z"/></g>
<g><path style="opacity:1" fill="#fcd9b2" d="M 160.5,62.5 C 169.281,63.2308 177.947,64.5641 186.5,66.5C 192.382,65.9818 198.048,64.6484 203.5,62.5C 205.923,62.5943 208.256,63.0943 210.5,64C 211.149,70.2659 211.815,76.4326 212.5,82.5C 212.874,97.7022 213.874,112.869 215.5,128C 215.962,133.269 214.796,138.102 212,142.5C 208.225,135.556 202.725,130.556 195.5,127.5C 196.969,125.808 197.635,123.808 197.5,121.5C 197.474,116.457 195.14,114.457 190.5,115.5C 192.197,116.364 193.363,117.697 194,119.5C 195.5,124.667 193.667,126.5 188.5,125C 186.631,123.398 184.631,122.398 182.5,122C 181.191,123.751 181.525,125.251 183.5,126.5C 170.085,128.443 160.585,135.443 155,147.5C 150.833,144.667 146.667,141.833 142.5,139C 135.2,133.883 130.533,127.05 128.5,118.5C 124.33,116.771 119.997,116.271 115.5,117C 122.608,121.24 125.941,127.407 125.5,135.5C 123.193,135.986 121.027,135.986 119,135.5C 118.667,132.833 118.333,130.167 118,127.5C 115.667,125.833 113.333,124.167 111,122.5C 110.042,120.801 109.542,118.967 109.5,117C 111.811,108.052 116.811,106.219 124.5,111.5C 125.793,112.645 126.959,112.311 128,110.5C 128.49,109.207 128.657,107.873 128.5,106.5C 129.228,103.921 129.728,101.254 130,98.5C 135.794,89.3807 136.96,79.714 133.5,69.5C 142.362,66.701 151.362,64.3677 160.5,62.5 Z"/></g>
<g><path style="opacity:0.012" fill="#000000" d="M 224.5,63.5 C 224.833,63.5 225.167,63.5 225.5,63.5C 225.315,64.1701 224.981,64.1701 224.5,63.5 Z"/></g>
<g><path style="opacity:0.012" fill="#000000" d="M 215.5,73.5 C 215.5,71.8333 215.5,70.1667 215.5,68.5C 216.552,68.3505 217.552,68.5172 218.5,69C 217.103,70.3103 216.103,71.8103 215.5,73.5 Z"/></g>
<g><path style="opacity:1" fill="#e5d5b9" d="M 128.5,106.5 C 128.657,107.873 128.49,109.207 128,110.5C 126.959,112.311 125.793,112.645 124.5,111.5C 123.577,108.74 121.744,106.74 119,105.5C 117.956,103.285 117.29,100.952 117,98.5C 116.08,88.4056 116.58,78.4056 118.5,68.5C 123.13,69.2295 127.797,69.5628 132.5,69.5C 133.44,73.4631 133.607,77.4631 133,81.5C 130.521,87.1251 127.521,92.4585 124,97.5C 123.502,100.482 123.335,103.482 123.5,106.5C 125.167,106.5 126.833,106.5 128.5,106.5 Z"/></g>
<g><path style="opacity:0.014" fill="#000000" d="M 110.5,72.5 C 111.525,72.8966 111.692,73.5632 111,74.5C 110.536,73.9056 110.369,73.2389 110.5,72.5 Z"/></g>
<g><path style="opacity:0.014" fill="#000000" d="M 110.5,77.5 C 110.167,77.5 109.833,77.5 109.5,77.5C 109.833,74.8333 110.167,74.8333 110.5,77.5 Z"/></g>
<g><path style="opacity:0.012" fill="#000000" d="M 109.5,77.5 C 109.657,78.8734 109.49,80.2068 109,81.5C 108.235,79.9343 108.402,78.6009 109.5,77.5 Z"/></g>
<g><path style="opacity:0.008" fill="#000000" d="M 107.5,98.5 C 106.282,93.2877 106.449,87.9544 108,82.5C 107.904,87.8086 107.738,93.142 107.5,98.5 Z"/></g>
<g><path style="opacity:1" fill="#171512" d="M 195.5,86.5 C 202.173,87.0009 207.507,89.8343 211.5,95C 206.154,94.1148 200.821,92.7814 195.5,91C 194.272,89.5098 194.272,88.0098 195.5,86.5 Z"/></g>
<g><path style="opacity:1" fill="#0e0c09" d="M 164.5,88.5 C 167.187,88.3359 169.854,88.5026 172.5,89C 173.337,90.0113 173.67,91.1779 173.5,92.5C 166.143,91.786 159.643,93.786 154,98.5C 154.546,95.9067 156.046,93.7401 158.5,92C 160.727,91.059 162.727,89.8923 164.5,88.5 Z"/></g>
<g><path style="opacity:0.011" fill="#000000" d="M 221.5,102.5 C 221.167,102.5 220.833,102.5 220.5,102.5C 220.802,99.9407 220.468,97.6074 219.5,95.5C 219.338,93.4727 219.505,91.4727 220,89.5C 221.075,93.77 221.575,98.1033 221.5,102.5 Z"/></g>
<g><path style="opacity:0.011" fill="#000000" d="M 107.5,98.5 C 108.622,100.288 108.789,102.288 108,104.5C 107.505,102.527 107.338,100.527 107.5,98.5 Z"/></g>
<g><path style="opacity:1" fill="#161310" d="M 164.5,99.5 C 167.734,99.2366 169.068,100.737 168.5,104C 168.369,106.253 167.869,108.419 167,110.5C 163.088,111.927 161.588,110.427 162.5,106C 162.338,103.498 163.005,101.331 164.5,99.5 Z"/></g>
<g><path style="opacity:1" fill="#1e1a17" d="M 201.5,99.5 C 206.66,100.68 207.827,103.68 205,108.5C 201.407,110.968 199.573,109.801 199.5,105C 199.395,102.822 200.061,100.988 201.5,99.5 Z"/></g>
<g><path style="opacity:0.012" fill="#000000" d="M 221.5,102.5 C 222.468,104.607 222.802,106.941 222.5,109.5C 221.532,107.393 221.198,105.059 221.5,102.5 Z"/></g>
<g><path style="opacity:0.011" fill="#000000" d="M 222.5,109.5 C 223.638,112.304 223.805,115.304 223,118.5C 222.502,115.518 222.335,112.518 222.5,109.5 Z"/></g>
<g><path style="opacity:0.011" fill="#000000" d="M 224.5,129.5 C 223.359,126.36 223.192,123.027 224,119.5C 224.498,122.817 224.665,126.15 224.5,129.5 Z"/></g>
<g><path style="opacity:0.012" fill="#000000" d="M 103.5,121.5 C 103.631,122.239 103.464,122.906 103,123.5C 102.308,122.563 102.475,121.897 103.5,121.5 Z"/></g>
<g><path style="opacity:0.016" fill="#000000" d="M 103.5,124.5 C 104.833,125.167 104.833,125.167 103.5,124.5 Z"/></g>
<g><path style="opacity:0.004" fill="#000000" d="M 224.5,129.5 C 225.833,130.5 225.833,131.5 224.5,132.5C 224.5,131.5 224.5,130.5 224.5,129.5 Z"/></g>
<g><path style="opacity:0.01" fill="#000000" d="M 224.5,132.5 C 224.802,135.059 224.468,137.393 223.5,139.5C 223.198,136.941 223.532,134.607 224.5,132.5 Z"/></g>
<g><path style="opacity:0.013" fill="#000000" d="M 222.5,139.5 C 222.833,139.5 223.167,139.5 223.5,139.5C 223.737,140.791 223.404,141.791 222.5,142.5C 222.5,141.5 222.5,140.5 222.5,139.5 Z"/></g>
<g><path style="opacity:1" fill="#f6d5af" d="M 176.5,135.5 C 184.22,135.238 191.887,135.738 199.5,137C 204.488,140.145 206.988,144.645 207,150.5C 205.732,153.598 203.399,155.265 200,155.5C 196.638,153.455 193.305,151.455 190,149.5C 186.271,150.891 183.437,153.391 181.5,157C 174.694,158.177 168.527,156.677 163,152.5C 162.038,147.767 163.538,143.934 167.5,141C 170.564,139.141 173.564,137.308 176.5,135.5 Z"/></g>
<g><path style="opacity:1" fill="#15120f" d="M 178.5,137.5 C 181.296,139.778 184.462,141.444 188,142.5C 191.445,141.891 194.278,140.225 196.5,137.5C 197.712,139.841 197.378,142.007 195.5,144C 189.209,149.01 183.376,148.51 178,142.5C 177.36,140.735 177.527,139.068 178.5,137.5 Z"/></g>
<g><path style="opacity:0.014" fill="#000000" d="M 221.5,142.5 C 221.833,142.5 222.167,142.5 222.5,142.5C 222.672,143.492 222.338,144.158 221.5,144.5C 221.5,143.833 221.5,143.167 221.5,142.5 Z"/></g>
<g><path style="opacity:0.031" fill="#000000" d="M 124.5,143.5 C 125.833,144.167 125.833,144.167 124.5,143.5 Z"/></g>
<g><path style="opacity:0.01" fill="#000000" d="M 124.5,144.5 C 122.034,145.634 119.367,145.801 116.5,145C 119.146,144.503 121.813,144.336 124.5,144.5 Z"/></g>
<g><path style="opacity:0.012" fill="#000000" d="M 220.5,144.5 C 220.833,144.5 221.167,144.5 221.5,144.5C 221.672,145.492 221.338,146.158 220.5,146.5C 220.5,145.833 220.5,145.167 220.5,144.5 Z"/></g>
<g><path style="opacity:0.016" fill="#000000" d="M 125.5,145.5 C 126.833,146.167 126.833,146.167 125.5,145.5 Z"/></g>
<g><path style="opacity:0.012" fill="#000000" d="M 219.5,146.5 C 219.833,146.5 220.167,146.5 220.5,146.5C 220.672,147.492 220.338,148.158 219.5,148.5C 219.5,147.833 219.5,147.167 219.5,146.5 Z"/></g>
<g><path style="opacity:0.012" fill="#000000" d="M 218.5,148.5 C 218.833,148.5 219.167,148.5 219.5,148.5C 219.672,149.492 219.338,150.158 218.5,150.5C 218.5,149.833 218.5,149.167 218.5,148.5 Z"/></g>
<g><path style="opacity:0.01" fill="#000000" d="M 129.5,149.5 C 130.167,149.5 130.5,149.833 130.5,150.5C 130.253,152.975 129.587,152.975 128.5,150.5C 128.624,149.893 128.957,149.56 129.5,149.5 Z"/></g>
<g><path style="opacity:0.016" fill="#000000" d="M 217.5,150.5 C 217.833,150.5 218.167,150.5 218.5,150.5C 218.315,151.17 217.981,151.17 217.5,150.5 Z"/></g>
<g><path style="opacity:0.015" fill="#000000" d="M 133.5,154.5 C 134.167,154.5 134.5,154.833 134.5,155.5C 133.054,156.613 131.387,156.78 129.5,156C 130.901,155.59 132.234,155.09 133.5,154.5 Z"/></g>
<g><path style="opacity:0.014" fill="#000000" d="M 213.5,160.5 C 213.369,159.761 213.536,159.094 214,158.5C 214.692,159.437 214.525,160.103 213.5,160.5 Z"/></g>
<g><path style="opacity:0.012" fill="#000000" d="M 212.5,160.5 C 212.833,160.5 213.167,160.5 213.5,160.5C 213.672,161.492 213.338,162.158 212.5,162.5C 212.5,161.833 212.5,161.167 212.5,160.5 Z"/></g>
<g><path style="opacity:1" fill="#e8c16f" d="M 130.5,159.5 C 137.244,158.41 138.744,160.41 135,165.5C 132.873,163.886 131.373,161.886 130.5,159.5 Z"/></g>
<g><path style="opacity:0.012" fill="#000000" d="M 211.5,162.5 C 211.833,162.5 212.167,162.5 212.5,162.5C 212.672,163.492 212.338,164.158 211.5,164.5C 211.5,163.833 211.5,163.167 211.5,162.5 Z"/></g>
<g><path style="opacity:1" fill="#f9cb75" d="M 154.5,184.5 C 157.147,186.811 159.814,189.144 162.5,191.5C 156.804,198.192 151.137,204.858 145.5,211.5C 144.108,210.395 142.941,209.061 142,207.5C 137.589,195.669 130.922,185.336 122,176.5C 121.209,175.255 120.709,173.922 120.5,172.5C 122.388,168.44 124.888,164.774 128,161.5C 135.198,171.208 144.031,178.874 154.5,184.5 Z"/></g>
<g><path style="opacity:0.012" fill="#000000" d="M 210.5,164.5 C 210.833,164.5 211.167,164.5 211.5,164.5C 211.672,165.492 211.338,166.158 210.5,166.5C 210.5,165.833 210.5,165.167 210.5,164.5 Z"/></g>
<g><path style="opacity:1" fill="#f9d7b0" d="M 172.5,211.5 C 171.732,212.263 171.232,213.263 171,214.5C 169.649,212.981 168.149,211.648 166.5,210.5C 165.923,208.894 165.59,207.228 165.5,205.5C 167.076,201.297 167.576,196.964 167,192.5C 164.289,188.288 160.789,184.954 156.5,182.5C 149.98,179.155 144.147,174.821 139,169.5C 139.052,166.728 140.219,164.394 142.5,162.5C 151.369,167.288 160.369,171.788 169.5,176C 175.157,176.499 180.824,176.666 186.5,176.5C 187.498,180.807 187.998,185.14 188,189.5C 186.333,192.5 184.667,195.5 183,198.5C 178.504,202.149 175.004,206.482 172.5,211.5 Z"/></g>
<g><path style="opacity:0.016" fill="#000000" d="M 209.5,166.5 C 209.833,166.5 210.167,166.5 210.5,166.5C 210.315,167.17 209.981,167.17 209.5,166.5 Z"/></g>
<g><path style="opacity:0.012" fill="#000000" d="M 115.5,175.5 C 114.761,175.631 114.094,175.464 113.5,175C 114.882,170.295 115.549,170.461 115.5,175.5 Z"/></g>
<g><path style="opacity:0.016" fill="#000000" d="M 205.5,171.5 C 206.833,172.167 206.833,172.167 205.5,171.5 Z"/></g>
<g><path style="opacity:0.898" fill="#13100c" d="M 120.5,172.5 C 120.709,173.922 121.209,175.255 122,176.5C 130.922,185.336 137.589,195.669 142,207.5C 142.941,209.061 144.108,210.395 145.5,211.5C 151.137,204.858 156.804,198.192 162.5,191.5C 159.814,189.144 157.147,186.811 154.5,184.5C 155.833,184.5 156.5,183.833 156.5,182.5C 160.789,184.954 164.289,188.288 167,192.5C 167.576,196.964 167.076,201.297 165.5,205.5C 165.59,207.228 165.923,208.894 166.5,210.5C 168.149,211.648 169.649,212.981 171,214.5C 171.232,213.263 171.732,212.263 172.5,211.5C 172.232,213.099 172.566,214.432 173.5,215.5C 175.579,219.328 177.412,223.328 179,227.5C 179.839,230.14 179.339,232.473 177.5,234.5C 176.117,224.625 171.284,216.958 163,211.5C 162.077,209.966 161.577,208.299 161.5,206.5C 162.972,202.598 163.472,198.598 163,194.5C 156.771,201.206 151.604,208.539 147.5,216.5C 145.097,216.607 143.264,215.607 142,213.5C 137.202,201.229 130.868,189.896 123,179.5C 122.261,178.426 121.261,177.759 120,177.5C 108.032,184.158 95.5323,189.658 82.5,194C 64.3496,201.484 52.5162,214.651 47,233.5C 39.7785,254.497 33.7785,275.83 29,297.5C 28.1923,299.579 28.359,301.579 29.5,303.5C 44.3829,306.037 59.0496,309.537 73.5,314C 74.3333,314.833 75.1667,315.667 76,316.5C 77.2538,304.136 78.7538,291.803 80.5,279.5C 79.1973,275.437 78.0306,271.437 77,267.5C 78.5737,268.984 79.907,270.651 81,272.5C 81.3603,270.579 82.1936,268.912 83.5,267.5C 85.152,282.774 84.4854,297.941 81.5,313C 81.8333,313.833 82.1667,314.667 82.5,315.5C 99.6228,310.052 116.956,305.218 134.5,301C 137.382,296.603 140.882,295.769 145,298.5C 158.838,293.838 172.671,289.005 186.5,284C 188.833,283.333 191.167,283.333 193.5,284C 196.369,287.204 199.535,290.037 203,292.5C 203.464,293.094 203.631,293.761 203.5,294.5C 202.448,294.649 201.448,294.483 200.5,294C 197.099,288.291 192.099,285.958 185.5,287C 174.074,290.029 163.074,294.029 152.5,299C 148.072,299.587 143.739,300.587 139.5,302C 137.993,303.473 137.326,305.307 137.5,307.5C 138.351,312.236 139.517,316.902 141,321.5C 142.351,323.019 143.851,324.352 145.5,325.5C 152.124,321.267 159.291,318.6 167,317.5C 174.508,312.228 182.008,312.395 189.5,318C 193.111,319.254 194.611,318.088 194,314.5C 189.087,310.136 183.254,307.97 176.5,308C 175.692,307.692 175.025,307.192 174.5,306.5C 181.99,305.207 188.657,307.04 194.5,312C 197.146,312.497 199.813,312.664 202.5,312.5C 201.5,313.167 200.5,313.833 199.5,314.5C 198.504,314.586 197.671,314.252 197,313.5C 196.689,315.556 196.189,317.556 195.5,319.5C 194.333,319.833 193.167,320.167 192,320.5C 187.917,319.711 184.084,318.211 180.5,316C 174.457,316.177 168.791,317.843 163.5,321C 167.052,321.878 170.386,323.044 173.5,324.5C 171.973,324.427 170.973,325.094 170.5,326.5C 166.367,325.231 162.367,323.564 158.5,321.5C 129.187,337.157 99.5208,352.324 69.5,367C 68.5495,370.057 68.2161,373.223 68.5,376.5C 67.5,376.5 66.5,376.5 65.5,376.5C 65.6641,373.813 65.4974,371.146 65,368.5C 63.3775,369.099 61.8775,369.766 60.5,370.5C 53.075,371.563 46.4084,369.896 40.5,365.5C 40.5,364.833 40.1667,364.5 39.5,364.5C 39.5,363.833 39.1667,363.5 38.5,363.5C 38.5,362.833 38.1667,362.5 37.5,362.5C 29.9072,351.974 26.5739,340.141 27.5,327C 27.5964,322.465 27.9298,317.965 28.5,313.5C 25.6755,313.919 23.5088,312.919 22,310.5C 22.0455,307.2 22.2122,303.866 22.5,300.5C 23.4511,299.081 23.7845,297.415 23.5,295.5C 25.9439,287.387 27.9439,279.054 29.5,270.5C 30.404,269.791 30.7373,268.791 30.5,267.5C 31.4345,266.432 31.7678,265.099 31.5,263.5C 32.404,262.791 32.7373,261.791 32.5,260.5C 35.6683,250.989 38.6683,241.322 41.5,231.5C 42.3382,231.158 42.6716,230.492 42.5,229.5C 46.0302,221.446 50.3636,213.779 55.5,206.5C 56.1667,206.5 56.5,206.167 56.5,205.5C 57.1667,205.5 57.5,205.167 57.5,204.5C 58.1667,204.5 58.5,204.167 58.5,203.5C 59.1667,203.5 59.5,203.167 59.5,202.5C 60.1667,202.5 60.5,202.167 60.5,201.5C 63.8566,199.134 67.1899,196.801 70.5,194.5C 71.1667,194.5 71.5,194.167 71.5,193.5C 86.4841,188.066 101.151,182.066 115.5,175.5C 116.5,175.5 117.5,175.5 118.5,175.5C 119.167,174.5 119.833,173.5 120.5,172.5 Z"/></g>
<g><path style="opacity:0.016" fill="#000000" d="M 200.5,175.5 C 201.833,176.167 201.833,176.167 200.5,175.5 Z"/></g>
<g><path style="opacity:1" fill="#fccd76" d="M 201.5,185.5 C 205.342,185.892 209.009,186.892 212.5,188.5C 212.842,189.338 213.508,189.672 214.5,189.5C 214.5,189.833 214.5,190.167 214.5,190.5C 211.181,189.333 207.847,188.499 204.5,188C 213.089,192.542 221.256,197.709 229,203.5C 234.216,211.964 238.382,220.964 241.5,230.5C 237.533,231.472 233.533,232.305 229.5,233C 226.898,233.883 224.731,235.383 223,237.5C 216.013,256.615 210.18,275.948 205.5,295.5C 204.833,295.167 204.167,294.833 203.5,294.5C 203.631,293.761 203.464,293.094 203,292.5C 199.535,290.037 196.369,287.204 193.5,284C 191.167,283.333 188.833,283.333 186.5,284C 172.671,289.005 158.838,293.838 145,298.5C 140.882,295.769 137.382,296.603 134.5,301C 116.956,305.218 99.6228,310.052 82.5,315.5C 82.1667,314.667 81.8333,313.833 81.5,313C 84.4854,297.941 85.152,282.774 83.5,267.5C 82.1936,268.912 81.3603,270.579 81,272.5C 79.907,270.651 78.5737,268.984 77,267.5C 78.0306,271.437 79.1973,275.437 80.5,279.5C 78.7538,291.803 77.2538,304.136 76,316.5C 75.1667,315.667 74.3333,314.833 73.5,314C 59.0496,309.537 44.3829,306.037 29.5,303.5C 28.359,301.579 28.1923,299.579 29,297.5C 33.7785,275.83 39.7785,254.497 47,233.5C 52.5162,214.651 64.3496,201.484 82.5,194C 95.5323,189.658 108.032,184.158 120,177.5C 121.261,177.759 122.261,178.426 123,179.5C 130.868,189.896 137.202,201.229 142,213.5C 143.264,215.607 145.097,216.607 147.5,216.5C 151.604,208.539 156.771,201.206 163,194.5C 163.472,198.598 162.972,202.598 161.5,206.5C 161.577,208.299 162.077,209.966 163,211.5C 171.284,216.958 176.117,224.625 177.5,234.5C 179.339,232.473 179.839,230.14 179,227.5C 177.412,223.328 175.579,219.328 173.5,215.5C 175.226,213.058 176.726,210.391 178,207.5C 184.415,201.671 189.082,194.671 192,186.5C 191.81,183.415 190.976,180.415 189.5,177.5C 190.002,176.479 190.668,176.312 191.5,177C 193.241,178.62 195.075,180.12 197,181.5C 197.667,184.833 197.667,188.167 197,191.5C 192.088,195.911 188.588,201.244 186.5,207.5C 185.131,205.876 183.464,205.376 181.5,206C 177.346,209.841 177.513,210.675 182,208.5C 184.741,209.789 187.241,211.455 189.5,213.5C 190.324,210.215 190.824,206.882 191,203.5C 194,199.833 197,196.167 200,192.5C 200.186,189.964 200.686,187.631 201.5,185.5 Z"/></g>
<g><path style="opacity:0.008" fill="#8b8a4f" d="M 202.5,181.5 C 203.309,182.469 204.309,183.302 205.5,184C 204.552,184.483 203.552,184.649 202.5,184.5C 202.5,183.5 202.5,182.5 202.5,181.5 Z"/></g>
<g><path style="opacity:0.004" fill="#262512" d="M 212.5,188.5 C 213.849,187.203 215.182,187.37 216.5,189C 215.906,189.464 215.239,189.631 214.5,189.5C 214.158,188.662 213.492,188.328 212.5,188.5 Z"/></g>
<g><path style="opacity:0.01" fill="#000000" d="M 75.5,190.5 C 75.8966,189.475 76.5632,189.308 77.5,190C 76.9056,190.464 76.2389,190.631 75.5,190.5 Z"/></g>
<g><path style="opacity:0.014" fill="#000000" d="M 217.5,190.5 C 217.897,189.475 218.563,189.308 219.5,190C 218.906,190.464 218.239,190.631 217.5,190.5 Z"/></g>
<g><path style="opacity:0.886" fill="#0e0d0a" d="M 214.5,190.5 C 222.506,192.493 229.173,196.493 234.5,202.5C 234.5,203.167 234.833,203.5 235.5,203.5C 236.596,206.032 237.929,208.365 239.5,210.5C 241.067,216.879 243.4,222.879 246.5,228.5C 246.833,229.833 247.167,229.833 247.5,228.5C 249.735,228.795 251.735,228.461 253.5,227.5C 260.724,227.135 267.724,226.135 274.5,224.5C 277.385,224.806 280.052,224.473 282.5,223.5C 294.677,222.846 306.677,221.846 318.5,220.5C 324.833,220.5 331.167,220.5 337.5,220.5C 337.5,222.833 337.5,225.167 337.5,227.5C 336.539,229.265 336.205,231.265 336.5,233.5C 335.105,237.591 334.438,241.924 334.5,246.5C 333.539,248.265 333.205,250.265 333.5,252.5C 330.679,266.291 328.346,280.291 326.5,294.5C 325.539,296.265 325.205,298.265 325.5,300.5C 324.539,302.265 324.205,304.265 324.5,306.5C 323.549,307.919 323.216,309.585 323.5,311.5C 322.596,312.209 322.263,313.209 322.5,314.5C 321.662,314.842 321.328,315.508 321.5,316.5C 320.662,316.842 320.328,317.508 320.5,318.5C 319.833,318.5 319.5,318.833 319.5,319.5C 318.833,319.5 318.5,319.833 318.5,320.5C 317.833,320.5 317.5,320.833 317.5,321.5C 316.833,321.5 316.5,321.833 316.5,322.5C 315.209,322.263 314.209,322.596 313.5,323.5C 311.901,323.232 310.568,323.566 309.5,324.5C 306.615,324.194 303.948,324.527 301.5,325.5C 295.274,325.388 289.274,326.054 283.5,327.5C 273.128,328.134 262.794,329.134 252.5,330.5C 252.68,339.528 252.347,348.528 251.5,357.5C 250.662,357.842 250.328,358.508 250.5,359.5C 249.833,359.5 249.5,359.833 249.5,360.5C 248.662,360.842 248.328,361.508 248.5,362.5C 246.77,363.026 245.436,364.026 244.5,365.5C 243.833,365.5 243.5,365.833 243.5,366.5C 242.833,366.5 242.5,366.833 242.5,367.5C 241.833,367.5 241.5,367.833 241.5,368.5C 240.508,368.328 239.842,368.662 239.5,369.5C 238.833,369.5 238.5,369.833 238.5,370.5C 237.508,370.328 236.842,370.662 236.5,371.5C 234.214,371.595 232.214,372.262 230.5,373.5C 229.167,373.5 227.833,373.5 226.5,373.5C 226.702,375.95 226.369,378.283 225.5,380.5C 224.508,380.672 223.842,380.338 223.5,379.5C 219.589,364.37 218.589,349.037 220.5,333.5C 202.919,336.795 186.253,334.462 170.5,326.5C 170.973,325.094 171.973,324.427 173.5,324.5C 180.552,327.517 187.885,329.517 195.5,330.5C 198.167,331.833 200.833,331.833 203.5,330.5C 240.539,326.078 277.539,321.578 314.5,317C 316.041,315.421 317.208,313.587 318,311.5C 323.171,282.472 328.338,253.472 333.5,224.5C 297.662,224.65 262.329,228.817 227.5,237C 225.959,238.579 224.792,240.413 224,242.5C 215.107,269.737 207.941,297.404 202.5,325.5C 201.596,324.791 201.263,323.791 201.5,322.5C 201.663,320.143 201.497,317.81 201,315.5C 200.617,314.944 200.117,314.611 199.5,314.5C 200.5,313.833 201.5,313.167 202.5,312.5C 203.97,306.946 204.97,301.279 205.5,295.5C 210.18,275.948 216.013,256.615 223,237.5C 224.731,235.383 226.898,233.883 229.5,233C 233.533,232.305 237.533,231.472 241.5,230.5C 238.382,220.964 234.216,211.964 229,203.5C 221.256,197.709 213.089,192.542 204.5,188C 207.847,188.499 211.181,189.333 214.5,190.5 Z M 274.5,224.5 C 267.724,226.135 260.724,227.135 253.5,227.5C 253.5,227.167 253.5,226.833 253.5,226.5C 260.481,225.646 267.481,224.979 274.5,224.5 Z"/></g>
<g><path style="opacity:0.01" fill="#000000" d="M 71.5,193.5 C 70.8333,193.5 70.5,193.833 70.5,194.5C 68.0248,194.253 68.0248,193.587 70.5,192.5C 71.1067,192.624 71.44,192.957 71.5,193.5 Z"/></g>
<g><path style="opacity:0.008" fill="#000000" d="M 60.5,201.5 C 59.8333,201.5 59.5,201.833 59.5,202.5C 58.8333,202.5 58.5,202.833 58.5,203.5C 57.8333,203.5 57.5,203.833 57.5,204.5C 56.8333,204.5 56.5,204.833 56.5,205.5C 55.8333,205.5 55.5,205.833 55.5,206.5C 54.475,206.103 54.3083,205.437 55,204.5C 56.1667,203.333 57.3333,202.167 58.5,201C 59.4368,200.308 60.1034,200.475 60.5,201.5 Z"/></g>
<g><path style="opacity:0.01" fill="#000000" d="M 235.5,203.5 C 234.833,203.5 234.5,203.167 234.5,202.5C 234.747,200.025 235.413,200.025 236.5,202.5C 236.376,203.107 236.043,203.44 235.5,203.5 Z"/></g>
<g><path style="opacity:0.014" fill="#000000" d="M 240.5,210.5 C 240.167,210.5 239.833,210.5 239.5,210.5C 239.833,207.833 240.167,207.833 240.5,210.5 Z"/></g>
<g><path style="opacity:0.012" fill="#000000" d="M 240.5,210.5 C 241.525,210.897 241.692,211.563 241,212.5C 240.536,211.906 240.369,211.239 240.5,210.5 Z"/></g>
<g><path style="opacity:1" fill="#221c13" d="M 156.5,209.5 C 158.361,212.022 160.361,214.522 162.5,217C 165.229,217.005 167.229,218.171 168.5,220.5C 168.167,220.833 167.833,221.167 167.5,221.5C 165.403,219.89 163.07,218.723 160.5,218C 158.754,215.341 157.42,212.508 156.5,209.5 Z"/></g>
<g><path style="opacity:0.012" fill="#000000" d="M 318.5,220.5 C 313.167,220.5 307.833,220.5 302.5,220.5C 313.97,218.844 325.637,218.344 337.5,219C 330.987,219.172 324.653,219.672 318.5,220.5 Z"/></g>
<g><path style="opacity:1" fill="#1c170f" d="M 87.5,212.5 C 94.5301,227.648 97.1967,243.648 95.5,260.5C 92.616,244.529 89.9494,228.529 87.5,212.5 Z"/></g>
<g><path style="opacity:0.012" fill="#000000" d="M 302.5,220.5 C 299.36,221.641 296.027,221.808 292.5,221C 295.817,220.502 299.15,220.335 302.5,220.5 Z"/></g>
<g><path style="opacity:0.012" fill="#000000" d="M 338.5,227.5 C 338.337,225.143 338.503,222.81 339,220.5C 339.796,223.039 339.629,225.372 338.5,227.5 Z"/></g>
<g><path style="opacity:1" fill="#120f08" d="M 106.5,217.5 C 108.328,220.135 109.495,223.135 110,226.5C 110.667,233.167 110.667,239.833 110,246.5C 109.692,247.308 109.192,247.975 108.5,248.5C 107.517,238.184 106.85,227.851 106.5,217.5 Z"/></g>
<g><path style="opacity:0.012" fill="#000000" d="M 282.5,223.5 C 279.813,223.664 277.146,223.497 274.5,223C 280.129,221.803 285.796,221.47 291.5,222C 288.305,222.181 285.305,222.681 282.5,223.5 Z"/></g>
<g><path style="opacity:1" fill="#fcfcfc" d="M 203.5,330.5 C 201.153,329.393 200.82,327.726 202.5,325.5C 207.941,297.404 215.107,269.737 224,242.5C 224.792,240.413 225.959,238.579 227.5,237C 262.329,228.817 297.662,224.65 333.5,224.5C 328.338,253.472 323.171,282.472 318,311.5C 317.208,313.587 316.041,315.421 314.5,317C 277.539,321.578 240.539,326.078 203.5,330.5 Z"/></g>
<g><path style="opacity:0.01" fill="#000000" d="M 42.5,229.5 C 41.6618,229.842 41.3284,230.508 41.5,231.5C 40.3789,229.911 40.5456,228.244 42,226.5C 42.4828,227.448 42.6495,228.448 42.5,229.5 Z"/></g>
<g><path style="opacity:0.013" fill="#000000" d="M 253.5,226.5 C 253.5,226.833 253.5,227.167 253.5,227.5C 251.265,227.205 249.265,227.539 247.5,228.5C 247.167,228.5 246.833,228.5 246.5,228.5C 248.279,226.656 250.612,225.99 253.5,226.5 Z"/></g>
<g><path style="opacity:0.011" fill="#000000" d="M 337.5,227.5 C 337.833,227.5 338.167,227.5 338.5,227.5C 338.795,229.735 338.461,231.735 337.5,233.5C 337.5,231.5 337.5,229.5 337.5,227.5 Z"/></g>
<g><path style="opacity:0.011" fill="#000000" d="M 336.5,233.5 C 336.833,233.5 337.167,233.5 337.5,233.5C 337.802,236.059 337.468,238.393 336.5,240.5C 336.5,238.167 336.5,235.833 336.5,233.5 Z"/></g>
<g><path style="opacity:0.013" fill="#000000" d="M 336.5,240.5 C 336.66,242.199 336.494,243.866 336,245.5C 335.22,243.613 335.387,241.946 336.5,240.5 Z"/></g>
<g><path style="opacity:0.011" fill="#000000" d="M 334.5,246.5 C 335.56,250.372 335.393,254.372 334,258.5C 333.505,256.527 333.338,254.527 333.5,252.5C 334.461,250.735 334.795,248.735 334.5,246.5 Z"/></g>
<g><path style="opacity:0.011" fill="#000000" d="M 32.5,260.5 C 31.596,261.209 31.2627,262.209 31.5,263.5C 31.1667,263.5 30.8333,263.5 30.5,263.5C 30.523,261.073 31.023,258.74 32,256.5C 32.49,257.793 32.6567,259.127 32.5,260.5 Z"/></g>
<g><path style="opacity:1" fill="#1e1e1e" d="M 277.5,259.5 C 279.371,259.859 280.871,260.859 282,262.5C 283.833,265 285.667,267.5 287.5,270C 285.064,269.947 282.731,270.113 280.5,270.5C 279.145,271.675 279.312,272.675 281,273.5C 281.835,277.503 280.669,280.836 277.5,283.5C 275.684,284.815 274.017,286.315 272.5,288C 270.102,288.374 267.769,288.374 265.5,288C 264.924,290.268 263.59,291.268 261.5,291C 264.29,287.254 266.957,283.421 269.5,279.5C 268.572,278.232 268.405,276.899 269,275.5C 272.526,274.356 275.526,272.356 278,269.5C 278.388,266.151 278.221,262.817 277.5,259.5 Z"/></g>
<g><path style="opacity:0.01" fill="#000000" d="M 30.5,263.5 C 30.5,264.833 30.5,266.167 30.5,267.5C 29.596,268.209 29.2627,269.209 29.5,270.5C 28.3549,268.047 28.6883,265.713 30.5,263.5 Z"/></g>
<g><path style="opacity:1" fill="#d4d4d4" d="M 277.5,273.5 C 280.038,275.322 280.038,277.322 277.5,279.5C 276.5,279 275.5,278.5 274.5,278C 275.883,276.729 276.883,275.229 277.5,273.5 Z"/></g>
<g><path style="opacity:0.012" fill="#000000" d="M 329.5,283.5 C 329.338,281.473 329.505,279.473 330,277.5C 330.789,279.712 330.622,281.712 329.5,283.5 Z"/></g>
<g><path style="opacity:1" fill="#e2e2e2" d="M 270.5,281.5 C 272.103,281.312 273.437,281.812 274.5,283C 269.638,288.018 268.305,287.518 270.5,281.5 Z"/></g>
<g><path style="opacity:0.013" fill="#000000" d="M 329.5,283.5 C 329.66,285.199 329.494,286.866 329,288.5C 328.22,286.613 328.387,284.946 329.5,283.5 Z"/></g>
<g><path style="opacity:0.011" fill="#000000" d="M 326.5,300.5 C 326.5,298.5 326.5,296.5 326.5,294.5C 327.302,293.048 327.802,291.382 328,289.5C 328.567,293.417 328.067,297.083 326.5,300.5 Z"/></g>
<g><path style="opacity:0.011" fill="#000000" d="M 23.5,295.5 C 22.5489,296.919 22.2155,298.585 22.5,300.5C 21.2995,297.595 21.4661,294.595 23,291.5C 23.49,292.793 23.6567,294.127 23.5,295.5 Z"/></g>
<g><path style="opacity:1" fill="#f8d6b0" d="M 203.5,294.5 C 204.167,294.833 204.833,295.167 205.5,295.5C 204.97,301.279 203.97,306.946 202.5,312.5C 199.813,312.664 197.146,312.497 194.5,312C 188.657,307.04 181.99,305.207 174.5,306.5C 175.025,307.192 175.692,307.692 176.5,308C 183.254,307.97 189.087,310.136 194,314.5C 194.611,318.088 193.111,319.254 189.5,318C 182.008,312.395 174.508,312.228 167,317.5C 159.291,318.6 152.124,321.267 145.5,325.5C 143.851,324.352 142.351,323.019 141,321.5C 139.517,316.902 138.351,312.236 137.5,307.5C 137.326,305.307 137.993,303.473 139.5,302C 143.739,300.587 148.072,299.587 152.5,299C 163.074,294.029 174.074,290.029 185.5,287C 192.099,285.958 197.099,288.291 200.5,294C 201.448,294.483 202.448,294.649 203.5,294.5 Z"/></g>
<g><path style="opacity:1" fill="#201d19" d="M 182.5,292.5 C 190.664,290.973 197.664,292.973 203.5,298.5C 203,298.833 202.5,299.167 202,299.5C 199.433,298.132 196.933,296.632 194.5,295C 186.665,294.286 178.998,295.119 171.5,297.5C 170.226,296.641 170.392,295.974 172,295.5C 175.645,294.551 179.145,293.551 182.5,292.5 Z"/></g>
<g><path style="opacity:0.011" fill="#000000" d="M 325.5,300.5 C 325.833,300.5 326.167,300.5 326.5,300.5C 326.795,302.735 326.461,304.735 325.5,306.5C 325.5,304.5 325.5,302.5 325.5,300.5 Z"/></g>
<g><path style="opacity:1" fill="#2a251f" d="M 187.5,300.5 C 189.857,300.337 192.19,300.503 194.5,301C 197.167,303 199.833,305 202.5,307C 201.167,307.667 199.833,307.667 198.5,307C 197.122,305.287 195.455,303.953 193.5,303C 188.845,303.164 184.179,303.164 179.5,303C 182.31,302.218 184.977,301.384 187.5,300.5 Z"/></g>
<g><path style="opacity:0.012" fill="#000000" d="M 324.5,306.5 C 324.833,306.5 325.167,306.5 325.5,306.5C 325.889,309.553 325.223,312.22 323.5,314.5C 323.5,313.5 323.5,312.5 323.5,311.5C 324.451,310.081 324.784,308.415 324.5,306.5 Z"/></g>
<g><path style="opacity:1" fill="#fcd9b2" d="M 30.5,329.5 C 30.5,322.167 30.5,314.833 30.5,307.5C 43.8077,309.721 56.8077,313.221 69.5,318C 65.5102,319.607 61.5102,321.107 57.5,322.5C 54.8554,323.491 52.522,324.991 50.5,327C 53.0266,326.404 55.3599,325.237 57.5,323.5C 83.2371,317.133 108.904,310.466 134.5,303.5C 133.123,312.424 135.123,320.424 140.5,327.5C 117.991,339.588 95.3241,351.422 72.5,363C 51.7176,372.691 38.2176,366.525 32,344.5C 30.9502,339.552 30.4502,334.552 30.5,329.5 Z"/></g>
<g><path style="opacity:0.01" fill="#000000" d="M 24.5,315.5 C 25.2506,314.427 26.2506,314.26 27.5,315C 26.6834,322.754 26.1834,330.588 26,338.5C 25.829,330.656 25.329,322.989 24.5,315.5 Z"/></g>
<g><path style="opacity:1" fill="#8e7b65" d="M 30.5,307.5 C 30.5,314.833 30.5,322.167 30.5,329.5C 29.8335,323.986 29.1668,318.319 28.5,312.5C 23.6907,310.473 23.5241,308.473 28,306.5C 28.9021,306.743 29.7354,307.077 30.5,307.5 Z"/></g>
<g><path style="opacity:1" fill="#f3f3f2" d="M 199.5,314.5 C 200.117,314.611 200.617,314.944 201,315.5C 201.497,317.81 201.663,320.143 201.5,322.5C 200.527,324.948 200.194,327.615 200.5,330.5C 198.833,330.5 197.167,330.5 195.5,330.5C 187.885,329.517 180.552,327.517 173.5,324.5C 170.386,323.044 167.052,321.878 163.5,321C 168.791,317.843 174.457,316.177 180.5,316C 184.084,318.211 187.917,319.711 192,320.5C 193.167,320.167 194.333,319.833 195.5,319.5C 196.189,317.556 196.689,315.556 197,313.5C 197.671,314.252 198.504,314.586 199.5,314.5 Z"/></g>
<g><path style="opacity:0.009" fill="#000000" d="M 322.5,314.5 C 322.833,314.5 323.167,314.5 323.5,314.5C 323.771,316.38 323.104,317.713 321.5,318.5C 321.5,317.833 321.5,317.167 321.5,316.5C 322.338,316.158 322.672,315.492 322.5,314.5 Z"/></g>
<g><path style="opacity:0.02" fill="#000000" d="M 320.5,318.5 C 320.833,318.5 321.167,318.5 321.5,318.5C 321.315,319.17 320.981,319.17 320.5,318.5 Z"/></g>
<g><path style="opacity:0.016" fill="#000000" d="M 319.5,319.5 C 319.833,319.5 320.167,319.5 320.5,319.5C 320.315,320.17 319.981,320.17 319.5,319.5 Z"/></g>
<g><path style="opacity:0.012" fill="#000000" d="M 318.5,320.5 C 318.833,320.5 319.167,320.5 319.5,320.5C 319.315,321.17 318.981,321.17 318.5,320.5 Z"/></g>
<g><path style="opacity:0.016" fill="#000000" d="M 317.5,321.5 C 317.833,321.5 318.167,321.5 318.5,321.5C 318.315,322.17 317.981,322.17 317.5,321.5 Z"/></g>
<g><path style="opacity:0.016" fill="#000000" d="M 316.5,322.5 C 316.833,322.5 317.167,322.5 317.5,322.5C 317.315,323.17 316.981,323.17 316.5,322.5 Z"/></g>
<g><path style="opacity:0.009" fill="#000000" d="M 313.5,324.5 C 313.5,324.167 313.5,323.833 313.5,323.5C 314.5,323.5 315.5,323.5 316.5,323.5C 315.791,324.404 314.791,324.737 313.5,324.5 Z"/></g>
<g><path style="opacity:1" fill="#786755" d="M 57.5,322.5 C 57.5,322.833 57.5,323.167 57.5,323.5C 55.3599,325.237 53.0266,326.404 50.5,327C 52.522,324.991 54.8554,323.491 57.5,322.5 Z"/></g>
<g><path style="opacity:0.996" fill="#fdce76" d="M 170.5,326.5 C 186.253,334.462 202.919,336.795 220.5,333.5C 218.589,349.037 219.589,364.37 223.5,379.5C 212.233,380.49 200.9,380.49 189.5,379.5C 172.69,378.003 155.69,377.169 138.5,377C 115.169,376.5 91.8357,376.333 68.5,376.5C 68.2161,373.223 68.5495,370.057 69.5,367C 99.5208,352.324 129.187,337.157 158.5,321.5C 162.367,323.564 166.367,325.231 170.5,326.5 Z"/></g>
<g><path style="opacity:0.013" fill="#000000" d="M 309.5,325.5 C 309.5,325.167 309.5,324.833 309.5,324.5C 310.833,324.5 312.167,324.5 313.5,324.5C 312.432,325.434 311.099,325.768 309.5,325.5 Z"/></g>
<g><path style="opacity:0.011" fill="#000000" d="M 301.5,326.5 C 301.5,326.167 301.5,325.833 301.5,325.5C 304.167,325.5 306.833,325.5 309.5,325.5C 307.052,326.473 304.385,326.806 301.5,326.5 Z"/></g>
<g><path style="opacity:0.012" fill="#000000" d="M 301.5,326.5 C 298.696,327.638 295.696,327.805 292.5,327C 295.482,326.502 298.482,326.335 301.5,326.5 Z"/></g>
<g><path style="opacity:0.012" fill="#000000" d="M 283.5,327.5 C 286.187,327.336 288.854,327.503 291.5,328C 288.633,328.801 285.966,328.634 283.5,327.5 Z"/></g>
<g><path style="opacity:1" fill="#4b4947" d="M 201.5,322.5 C 201.263,323.791 201.596,324.791 202.5,325.5C 200.82,327.726 201.153,329.393 203.5,330.5C 200.833,331.833 198.167,331.833 195.5,330.5C 197.167,330.5 198.833,330.5 200.5,330.5C 200.194,327.615 200.527,324.948 201.5,322.5 Z"/></g>
<g><path style="opacity:0.016" fill="#000000" d="M 253.5,331.5 C 254.552,331.351 255.552,331.517 256.5,332C 254.724,338.557 253.891,345.391 254,352.5C 253.5,345.508 253.334,338.508 253.5,331.5 Z"/></g>
<g><path style="opacity:1" fill="#f7d5af" d="M 242.5,330.5 C 244.833,330.5 247.167,330.5 249.5,330.5C 247.505,339.12 245.671,347.786 244,356.5C 239.734,362.275 234.234,366.275 227.5,368.5C 225.222,368.219 224.055,366.885 224,364.5C 222.652,354.196 222.319,343.863 223,333.5C 229.61,332.594 236.11,331.594 242.5,330.5 Z"/></g>
<g><path style="opacity:1" fill="#131009" d="M 155.5,331.5 C 156.043,331.56 156.376,331.893 156.5,332.5C 153.255,339.324 149.755,345.991 146,352.5C 143.296,356.58 140.129,360.247 136.5,363.5C 135.959,361.477 136.459,359.477 138,357.5C 143.596,348.632 149.429,339.965 155.5,331.5 Z"/></g>
<g><path style="opacity:0.013" fill="#000000" d="M 252.5,357.5 C 252.343,356.127 252.51,354.793 253,353.5C 253.765,355.066 253.598,356.399 252.5,357.5 Z"/></g>
<g><path style="opacity:0.012" fill="#000000" d="M 251.5,357.5 C 251.833,357.5 252.167,357.5 252.5,357.5C 252.672,358.492 252.338,359.158 251.5,359.5C 251.5,358.833 251.5,358.167 251.5,357.5 Z"/></g>
<g><path style="opacity:0.016" fill="#000000" d="M 250.5,359.5 C 250.833,359.5 251.167,359.5 251.5,359.5C 251.315,360.17 250.981,360.17 250.5,359.5 Z"/></g>
<g><path style="opacity:0.008" fill="#000000" d="M 249.5,360.5 C 249.833,360.5 250.167,360.5 250.5,360.5C 250.672,361.492 250.338,362.158 249.5,362.5C 249.5,361.833 249.5,361.167 249.5,360.5 Z"/></g>
<g><path style="opacity:0.008" fill="#000000" d="M 37.5,362.5 C 38.1667,362.5 38.5,362.833 38.5,363.5C 39.1667,363.5 39.5,363.833 39.5,364.5C 40.1667,364.5 40.5,364.833 40.5,365.5C 38.732,366.507 37.3987,365.841 36.5,363.5C 36.6236,362.893 36.9569,362.56 37.5,362.5 Z"/></g>
<g><path style="opacity:0.012" fill="#000000" d="M 248.5,362.5 C 248.833,362.5 249.167,362.5 249.5,362.5C 249.315,363.17 248.981,363.17 248.5,362.5 Z"/></g>
<g><path style="opacity:0.008" fill="#000000" d="M 244.5,365.5 C 246.793,366.301 246.46,366.968 243.5,367.5C 243.5,367.167 243.5,366.833 243.5,366.5C 244.167,366.5 244.5,366.167 244.5,365.5 Z"/></g>
<g><path style="opacity:0.024" fill="#000000" d="M 242.5,367.5 C 242.833,367.5 243.167,367.5 243.5,367.5C 243.315,368.17 242.981,368.17 242.5,367.5 Z"/></g>
<g><path style="opacity:0.016" fill="#000000" d="M 241.5,368.5 C 241.833,368.5 242.167,368.5 242.5,368.5C 242.315,369.17 241.981,369.17 241.5,368.5 Z"/></g>
<g><path style="opacity:0.012" fill="#000000" d="M 239.5,370.5 C 239.5,370.167 239.5,369.833 239.5,369.5C 240.167,369.5 240.833,369.5 241.5,369.5C 241.158,370.338 240.492,370.672 239.5,370.5 Z"/></g>
<g><path style="opacity:0.01" fill="#000000" d="M 60.5,371.5 C 60.5,371.167 60.5,370.833 60.5,370.5C 61.8333,370.5 63.1667,370.5 64.5,370.5C 64.6621,372.527 64.4955,374.527 64,376.5C 62.6319,375.007 62.4652,373.507 63.5,372C 62.552,371.517 61.552,371.351 60.5,371.5 Z"/></g>
<g><path style="opacity:0.016" fill="#000000" d="M 238.5,370.5 C 238.833,370.5 239.167,370.5 239.5,370.5C 239.315,371.17 238.981,371.17 238.5,370.5 Z"/></g>
<g><path style="opacity:0.011" fill="#000000" d="M 60.5,371.5 C 57.0242,372.643 53.3575,372.81 49.5,372C 53.1516,371.501 56.8183,371.335 60.5,371.5 Z"/></g>
<g><path style="opacity:0.012" fill="#000000" d="M 236.5,372.5 C 236.5,372.167 236.5,371.833 236.5,371.5C 237.167,371.5 237.833,371.5 238.5,371.5C 238.158,372.338 237.492,372.672 236.5,372.5 Z"/></g>
<g><path style="opacity:0.012" fill="#000000" d="M 236.5,372.5 C 236.103,373.525 235.437,373.692 234.5,373C 235.094,372.536 235.761,372.369 236.5,372.5 Z"/></g>
<g><path style="opacity:0.014" fill="#000000" d="M 230.5,373.5 C 231.552,373.351 232.552,373.517 233.5,374C 231.975,375.009 230.308,375.509 228.5,375.5C 227.997,380.5 227.664,380.167 227.5,374.5C 228.791,374.737 229.791,374.404 230.5,373.5 Z"/></g>
<g><path style="opacity:0.012" fill="#feca7c" d="M 65.5,378.5 C 88.9964,377.337 112.663,377.17 136.5,378C 112.836,378.5 89.169,378.667 65.5,378.5 Z"/></g>
<g><path style="opacity:0.016" fill="#ffda7c" d="M 189.5,379.5 C 189.5,379.833 189.5,380.167 189.5,380.5C 120.167,378.833 120.167,378.5 189.5,379.5 Z"/></g>
<g><path style="opacity:0.008" fill="#000000" d="M 225.5,380.5 C 226.833,381.167 226.833,381.167 225.5,380.5 Z"/></g>
<g><path style="opacity:0.012" fill="#ffcc78" d="M 189.5,380.5 C 200.496,381 211.496,381.5 222.5,382C 211.288,382.868 200.288,382.368 189.5,380.5 Z"/></g>
<g><path style="opacity:0.01" fill="#000000" d="M 225.5,381.5 C 225.103,382.525 224.437,382.692 223.5,382C 224.094,381.536 224.761,381.369 225.5,381.5 Z"/></g>
</svg>
